<mxfile host="app.diagrams.net" modified="2024-03-21T13:59:37.452Z" agent="Mozilla/5.0 (Windows NT 10.0; Win64; x64) AppleWebKit/537.36 (KHTML, like Gecko) Chrome/122.0.0.0 Safari/537.36 OPR/108.0.0.0" etag="JXqiYUPI_46SLit2cVHC" version="24.0.7" type="github">
  <diagram id="R2lEEEUBdFMjLlhIrx00" name="Page-1">
    <mxGraphModel dx="1297" dy="523" grid="1" gridSize="10" guides="1" tooltips="1" connect="1" arrows="1" fold="1" page="1" pageScale="1" pageWidth="850" pageHeight="1100" math="0" shadow="0" extFonts="Permanent Marker^https://fonts.googleapis.com/css?family=Permanent+Marker">
      <root>
        <mxCell id="0" />
        <mxCell id="1" parent="0" />
        <mxCell id="x47aLHPAcNhYksjjP72f-1" value="CupÃ³n" style="whiteSpace=wrap;html=1;align=center;" vertex="1" parent="1">
          <mxGeometry x="200" y="160" width="100" height="40" as="geometry" />
        </mxCell>
        <mxCell id="x47aLHPAcNhYksjjP72f-2" value="" style="endArrow=none;html=1;rounded=0;exitX=0.5;exitY=0;exitDx=0;exitDy=0;entryX=1;entryY=0.5;entryDx=0;entryDy=0;" edge="1" parent="1" source="x47aLHPAcNhYksjjP72f-1" target="x47aLHPAcNhYksjjP72f-4">
          <mxGeometry relative="1" as="geometry">
            <mxPoint x="240" y="230" as="sourcePoint" />
            <mxPoint x="210" y="62" as="targetPoint" />
            <Array as="points">
              <mxPoint x="250" y="80" />
            </Array>
          </mxGeometry>
        </mxCell>
        <mxCell id="x47aLHPAcNhYksjjP72f-3" value="(0,1)" style="resizable=0;html=1;whiteSpace=wrap;align=right;verticalAlign=bottom;" connectable="0" vertex="1" parent="x47aLHPAcNhYksjjP72f-2">
          <mxGeometry x="1" relative="1" as="geometry">
            <mxPoint x="100" y="80" as="offset" />
          </mxGeometry>
        </mxCell>
        <mxCell id="x47aLHPAcNhYksjjP72f-4" value="es supercupon" style="shape=rhombus;perimeter=rhombusPerimeter;whiteSpace=wrap;html=1;align=center;" vertex="1" parent="1">
          <mxGeometry x="20" y="50" width="120" height="60" as="geometry" />
        </mxCell>
        <mxCell id="x47aLHPAcNhYksjjP72f-7" value="" style="endArrow=none;html=1;rounded=0;exitX=0;exitY=0.5;exitDx=0;exitDy=0;entryX=0.5;entryY=1;entryDx=0;entryDy=0;" edge="1" parent="1" source="x47aLHPAcNhYksjjP72f-1" target="x47aLHPAcNhYksjjP72f-4">
          <mxGeometry relative="1" as="geometry">
            <mxPoint x="180" y="10" as="sourcePoint" />
            <mxPoint x="340" y="10" as="targetPoint" />
            <Array as="points">
              <mxPoint x="80" y="180" />
            </Array>
          </mxGeometry>
        </mxCell>
        <mxCell id="x47aLHPAcNhYksjjP72f-8" value="(1,1)" style="resizable=0;html=1;whiteSpace=wrap;align=right;verticalAlign=bottom;" connectable="0" vertex="1" parent="x47aLHPAcNhYksjjP72f-7">
          <mxGeometry x="1" relative="1" as="geometry">
            <mxPoint x="100" y="90" as="offset" />
          </mxGeometry>
        </mxCell>
        <mxCell id="x47aLHPAcNhYksjjP72f-9" value="tiene asociado" style="text;html=1;align=center;verticalAlign=middle;resizable=0;points=[];autosize=1;strokeColor=none;fillColor=none;" vertex="1" parent="1">
          <mxGeometry x="130" y="50" width="100" height="30" as="geometry" />
        </mxCell>
        <mxCell id="x47aLHPAcNhYksjjP72f-10" value="se asocia" style="text;html=1;align=center;verticalAlign=middle;resizable=0;points=[];autosize=1;strokeColor=none;fillColor=none;" vertex="1" parent="1">
          <mxGeometry x="70" y="188" width="70" height="30" as="geometry" />
        </mxCell>
        <mxCell id="x47aLHPAcNhYksjjP72f-11" value="" style="endArrow=none;html=1;rounded=0;exitX=0.66;exitY=0.025;exitDx=0;exitDy=0;exitPerimeter=0;" edge="1" parent="1" source="x47aLHPAcNhYksjjP72f-1" target="x47aLHPAcNhYksjjP72f-12">
          <mxGeometry relative="1" as="geometry">
            <mxPoint x="120" y="130" as="sourcePoint" />
            <mxPoint x="290" y="120" as="targetPoint" />
            <Array as="points">
              <mxPoint x="266" y="130" />
              <mxPoint x="295" y="130" />
            </Array>
          </mxGeometry>
        </mxCell>
        <mxCell id="x47aLHPAcNhYksjjP72f-12" value="hora vto" style="ellipse;whiteSpace=wrap;html=1;align=center;" vertex="1" parent="1">
          <mxGeometry x="260" y="90" width="70" height="30" as="geometry" />
        </mxCell>
        <mxCell id="x47aLHPAcNhYksjjP72f-13" value="" style="endArrow=none;html=1;rounded=0;" edge="1" parent="1" target="x47aLHPAcNhYksjjP72f-14">
          <mxGeometry relative="1" as="geometry">
            <mxPoint x="280" y="200" as="sourcePoint" />
            <mxPoint x="290" y="230" as="targetPoint" />
            <Array as="points">
              <mxPoint x="280" y="230" />
            </Array>
          </mxGeometry>
        </mxCell>
        <mxCell id="x47aLHPAcNhYksjjP72f-14" value="importe" style="ellipse;whiteSpace=wrap;html=1;align=center;" vertex="1" parent="1">
          <mxGeometry x="300" y="215" width="70" height="30" as="geometry" />
        </mxCell>
        <mxCell id="x47aLHPAcNhYksjjP72f-16" value="fecha" style="ellipse;whiteSpace=wrap;html=1;align=center;" vertex="1" parent="1">
          <mxGeometry x="150" y="215" width="50" height="30" as="geometry" />
        </mxCell>
        <mxCell id="x47aLHPAcNhYksjjP72f-17" value="" style="endArrow=none;html=1;rounded=0;exitX=1;exitY=0.25;exitDx=0;exitDy=0;" edge="1" parent="1" source="x47aLHPAcNhYksjjP72f-1" target="x47aLHPAcNhYksjjP72f-18">
          <mxGeometry relative="1" as="geometry">
            <mxPoint x="120" y="130" as="sourcePoint" />
            <mxPoint x="340" y="160" as="targetPoint" />
            <Array as="points">
              <mxPoint x="340" y="170" />
            </Array>
          </mxGeometry>
        </mxCell>
        <mxCell id="x47aLHPAcNhYksjjP72f-18" value="numero" style="ellipse;whiteSpace=wrap;html=1;align=center;fontStyle=4;" vertex="1" parent="1">
          <mxGeometry x="310" y="120" width="60" height="30" as="geometry" />
        </mxCell>
        <mxCell id="x47aLHPAcNhYksjjP72f-20" value="" style="endArrow=none;html=1;rounded=0;exitX=1;exitY=0.5;exitDx=0;exitDy=0;" edge="1" parent="1" source="x47aLHPAcNhYksjjP72f-1" target="x47aLHPAcNhYksjjP72f-21">
          <mxGeometry relative="1" as="geometry">
            <mxPoint x="440" y="330" as="sourcePoint" />
            <mxPoint x="500" y="180" as="targetPoint" />
          </mxGeometry>
        </mxCell>
        <mxCell id="x47aLHPAcNhYksjjP72f-21" value="compra" style="shape=rhombus;perimeter=rhombusPerimeter;whiteSpace=wrap;html=1;align=center;" vertex="1" parent="1">
          <mxGeometry x="440" y="150" width="120" height="60" as="geometry" />
        </mxCell>
        <mxCell id="x47aLHPAcNhYksjjP72f-22" value="" style="endArrow=none;html=1;rounded=0;exitX=0.5;exitY=1;exitDx=0;exitDy=0;" edge="1" parent="1" source="x47aLHPAcNhYksjjP72f-21" target="x47aLHPAcNhYksjjP72f-23">
          <mxGeometry relative="1" as="geometry">
            <mxPoint x="440" y="330" as="sourcePoint" />
            <mxPoint x="600" y="330" as="targetPoint" />
          </mxGeometry>
        </mxCell>
        <mxCell id="x47aLHPAcNhYksjjP72f-23" value="forma de pago" style="ellipse;whiteSpace=wrap;html=1;align=center;" vertex="1" parent="1">
          <mxGeometry x="450" y="230" width="100" height="40" as="geometry" />
        </mxCell>
        <mxCell id="x47aLHPAcNhYksjjP72f-24" value="" style="endArrow=none;html=1;rounded=0;exitX=1;exitY=1;exitDx=0;exitDy=0;" edge="1" parent="1" source="x47aLHPAcNhYksjjP72f-21" target="x47aLHPAcNhYksjjP72f-25">
          <mxGeometry relative="1" as="geometry">
            <mxPoint x="440" y="330" as="sourcePoint" />
            <mxPoint x="600" y="330" as="targetPoint" />
          </mxGeometry>
        </mxCell>
        <mxCell id="x47aLHPAcNhYksjjP72f-25" value="fecha" style="ellipse;whiteSpace=wrap;html=1;align=center;fontStyle=4;" vertex="1" parent="1">
          <mxGeometry x="550" y="210" width="70" height="30" as="geometry" />
        </mxCell>
        <mxCell id="x47aLHPAcNhYksjjP72f-26" value="" style="endArrow=none;html=1;rounded=0;exitX=1;exitY=0;exitDx=0;exitDy=0;" edge="1" parent="1" source="x47aLHPAcNhYksjjP72f-21" target="x47aLHPAcNhYksjjP72f-27">
          <mxGeometry relative="1" as="geometry">
            <mxPoint x="440" y="330" as="sourcePoint" />
            <mxPoint x="570" y="130" as="targetPoint" />
          </mxGeometry>
        </mxCell>
        <mxCell id="x47aLHPAcNhYksjjP72f-27" value="hora" style="ellipse;whiteSpace=wrap;html=1;align=center;fontStyle=4;" vertex="1" parent="1">
          <mxGeometry x="540" y="120" width="70" height="30" as="geometry" />
        </mxCell>
        <mxCell id="x47aLHPAcNhYksjjP72f-28" value="" style="endArrow=none;html=1;rounded=0;exitX=1;exitY=0.5;exitDx=0;exitDy=0;" edge="1" parent="1" source="x47aLHPAcNhYksjjP72f-21" target="x47aLHPAcNhYksjjP72f-29">
          <mxGeometry relative="1" as="geometry">
            <mxPoint x="620" y="160" as="sourcePoint" />
            <mxPoint x="770" y="180" as="targetPoint" />
          </mxGeometry>
        </mxCell>
        <mxCell id="x47aLHPAcNhYksjjP72f-29" value="Cliente" style="whiteSpace=wrap;html=1;align=center;" vertex="1" parent="1">
          <mxGeometry x="680" y="160" width="100" height="40" as="geometry" />
        </mxCell>
        <mxCell id="x47aLHPAcNhYksjjP72f-31" value="" style="endArrow=none;html=1;rounded=0;entryX=0.25;entryY=0;entryDx=0;entryDy=0;exitX=0.5;exitY=1;exitDx=0;exitDy=0;" edge="1" parent="1" source="x47aLHPAcNhYksjjP72f-32" target="x47aLHPAcNhYksjjP72f-29">
          <mxGeometry relative="1" as="geometry">
            <mxPoint x="694" y="100" as="sourcePoint" />
            <mxPoint x="780" y="160" as="targetPoint" />
          </mxGeometry>
        </mxCell>
        <mxCell id="x47aLHPAcNhYksjjP72f-32" value="dni" style="ellipse;whiteSpace=wrap;html=1;align=center;fontStyle=4;" vertex="1" parent="1">
          <mxGeometry x="670" y="110" width="44" height="30" as="geometry" />
        </mxCell>
        <mxCell id="x47aLHPAcNhYksjjP72f-33" value="" style="endArrow=none;html=1;rounded=0;entryX=0.5;entryY=0;entryDx=0;entryDy=0;exitX=0.5;exitY=1;exitDx=0;exitDy=0;" edge="1" parent="1" source="x47aLHPAcNhYksjjP72f-34" target="x47aLHPAcNhYksjjP72f-29">
          <mxGeometry relative="1" as="geometry">
            <mxPoint x="740" y="120" as="sourcePoint" />
            <mxPoint x="780" y="160" as="targetPoint" />
          </mxGeometry>
        </mxCell>
        <mxCell id="x47aLHPAcNhYksjjP72f-34" value="nombre" style="ellipse;whiteSpace=wrap;html=1;align=center;" vertex="1" parent="1">
          <mxGeometry x="720" y="110" width="70" height="30" as="geometry" />
        </mxCell>
        <mxCell id="x47aLHPAcNhYksjjP72f-35" value="" style="endArrow=none;html=1;rounded=0;exitX=1;exitY=0.5;exitDx=0;exitDy=0;" edge="1" parent="1" source="x47aLHPAcNhYksjjP72f-29" target="x47aLHPAcNhYksjjP72f-36">
          <mxGeometry relative="1" as="geometry">
            <mxPoint x="620" y="160" as="sourcePoint" />
            <mxPoint x="810" y="180" as="targetPoint" />
          </mxGeometry>
        </mxCell>
        <mxCell id="x47aLHPAcNhYksjjP72f-36" value="telefono" style="ellipse;shape=doubleEllipse;margin=3;whiteSpace=wrap;html=1;align=center;" vertex="1" parent="1">
          <mxGeometry x="800" y="160" width="80" height="40" as="geometry" />
        </mxCell>
        <mxCell id="x47aLHPAcNhYksjjP72f-37" value="" style="endArrow=none;html=1;rounded=0;exitX=0.5;exitY=1;exitDx=0;exitDy=0;" edge="1" parent="1" source="x47aLHPAcNhYksjjP72f-29" target="x47aLHPAcNhYksjjP72f-38">
          <mxGeometry relative="1" as="geometry">
            <mxPoint x="620" y="160" as="sourcePoint" />
            <mxPoint x="730" y="260" as="targetPoint" />
          </mxGeometry>
        </mxCell>
        <mxCell id="x47aLHPAcNhYksjjP72f-38" value="email" style="ellipse;whiteSpace=wrap;html=1;align=center;" vertex="1" parent="1">
          <mxGeometry x="700" y="230" width="60" height="28" as="geometry" />
        </mxCell>
        <mxCell id="x47aLHPAcNhYksjjP72f-39" value="" style="endArrow=none;html=1;rounded=0;exitX=1;exitY=0;exitDx=0;exitDy=0;" edge="1" parent="1" source="x47aLHPAcNhYksjjP72f-36" target="x47aLHPAcNhYksjjP72f-40">
          <mxGeometry relative="1" as="geometry">
            <mxPoint x="860" y="160" as="sourcePoint" />
            <mxPoint x="940" y="140" as="targetPoint" />
          </mxGeometry>
        </mxCell>
        <mxCell id="x47aLHPAcNhYksjjP72f-40" value="area" style="ellipse;whiteSpace=wrap;html=1;align=center;" vertex="1" parent="1">
          <mxGeometry x="880" y="130" width="70" height="30" as="geometry" />
        </mxCell>
        <mxCell id="x47aLHPAcNhYksjjP72f-41" value="" style="endArrow=none;html=1;rounded=0;exitX=1;exitY=1;exitDx=0;exitDy=0;" edge="1" parent="1" source="x47aLHPAcNhYksjjP72f-36" target="x47aLHPAcNhYksjjP72f-42">
          <mxGeometry relative="1" as="geometry">
            <mxPoint x="860" y="160" as="sourcePoint" />
            <mxPoint x="930" y="210" as="targetPoint" />
          </mxGeometry>
        </mxCell>
        <mxCell id="x47aLHPAcNhYksjjP72f-42" value="numero" style="ellipse;whiteSpace=wrap;html=1;align=center;" vertex="1" parent="1">
          <mxGeometry x="880" y="200" width="70" height="30" as="geometry" />
        </mxCell>
        <mxCell id="x47aLHPAcNhYksjjP72f-44" value="Proveedor" style="whiteSpace=wrap;html=1;align=center;" vertex="1" parent="1">
          <mxGeometry x="670" y="441" width="100" height="40" as="geometry" />
        </mxCell>
        <mxCell id="x47aLHPAcNhYksjjP72f-45" value="" style="endArrow=none;html=1;rounded=0;exitX=0.25;exitY=0;exitDx=0;exitDy=0;" edge="1" parent="1" source="x47aLHPAcNhYksjjP72f-44" target="x47aLHPAcNhYksjjP72f-46">
          <mxGeometry relative="1" as="geometry">
            <mxPoint x="590" y="390" as="sourcePoint" />
            <mxPoint x="695" y="400" as="targetPoint" />
          </mxGeometry>
        </mxCell>
        <mxCell id="x47aLHPAcNhYksjjP72f-46" value="razÃ³n social" style="ellipse;whiteSpace=wrap;html=1;align=center;" vertex="1" parent="1">
          <mxGeometry x="652.5" y="390" width="85" height="30" as="geometry" />
        </mxCell>
        <mxCell id="x47aLHPAcNhYksjjP72f-49" value="" style="endArrow=none;html=1;rounded=0;exitX=0.75;exitY=0;exitDx=0;exitDy=0;" edge="1" parent="1" source="x47aLHPAcNhYksjjP72f-44" target="x47aLHPAcNhYksjjP72f-50">
          <mxGeometry relative="1" as="geometry">
            <mxPoint x="590" y="390" as="sourcePoint" />
            <mxPoint x="770" y="410" as="targetPoint" />
            <Array as="points">
              <mxPoint x="745" y="405" />
            </Array>
          </mxGeometry>
        </mxCell>
        <mxCell id="x47aLHPAcNhYksjjP72f-50" value="CUIT" style="ellipse;whiteSpace=wrap;html=1;align=center;fontStyle=0;" vertex="1" parent="1">
          <mxGeometry x="760" y="390" width="70" height="30" as="geometry" />
        </mxCell>
        <mxCell id="x47aLHPAcNhYksjjP72f-51" value="telefono" style="ellipse;shape=doubleEllipse;margin=3;whiteSpace=wrap;html=1;align=center;" vertex="1" parent="1">
          <mxGeometry x="810" y="440" width="100" height="40" as="geometry" />
        </mxCell>
        <mxCell id="x47aLHPAcNhYksjjP72f-52" value="" style="endArrow=none;html=1;rounded=0;exitX=1;exitY=0.5;exitDx=0;exitDy=0;entryX=0;entryY=0.5;entryDx=0;entryDy=0;" edge="1" parent="1" source="x47aLHPAcNhYksjjP72f-44" target="x47aLHPAcNhYksjjP72f-51">
          <mxGeometry relative="1" as="geometry">
            <mxPoint x="590" y="390" as="sourcePoint" />
            <mxPoint x="750" y="390" as="targetPoint" />
          </mxGeometry>
        </mxCell>
        <mxCell id="x47aLHPAcNhYksjjP72f-56" value="Producto" style="shape=ext;margin=3;double=1;whiteSpace=wrap;html=1;align=center;" vertex="1" parent="1">
          <mxGeometry x="200" y="440" width="100" height="45" as="geometry" />
        </mxCell>
        <mxCell id="x47aLHPAcNhYksjjP72f-57" value="" style="endArrow=none;html=1;rounded=0;exitX=0.25;exitY=1;exitDx=0;exitDy=0;" edge="1" parent="1" source="x47aLHPAcNhYksjjP72f-56" target="x47aLHPAcNhYksjjP72f-58">
          <mxGeometry relative="1" as="geometry">
            <mxPoint x="270" y="390" as="sourcePoint" />
            <mxPoint x="225" y="531" as="targetPoint" />
          </mxGeometry>
        </mxCell>
        <mxCell id="x47aLHPAcNhYksjjP72f-58" value="dimensiones" style="ellipse;whiteSpace=wrap;html=1;align=center;" vertex="1" parent="1">
          <mxGeometry x="175" y="511" width="100" height="40" as="geometry" />
        </mxCell>
        <mxCell id="x47aLHPAcNhYksjjP72f-59" value="" style="endArrow=none;html=1;rounded=0;exitX=0;exitY=1;exitDx=0;exitDy=0;" edge="1" parent="1" source="x47aLHPAcNhYksjjP72f-58" target="x47aLHPAcNhYksjjP72f-60">
          <mxGeometry relative="1" as="geometry">
            <mxPoint x="270" y="500" as="sourcePoint" />
            <mxPoint x="140" y="600" as="targetPoint" />
            <Array as="points">
              <mxPoint x="170" y="545" />
            </Array>
          </mxGeometry>
        </mxCell>
        <mxCell id="x47aLHPAcNhYksjjP72f-60" value="alto" style="ellipse;whiteSpace=wrap;html=1;align=center;" vertex="1" parent="1">
          <mxGeometry x="145" y="577" width="50" height="30" as="geometry" />
        </mxCell>
        <mxCell id="x47aLHPAcNhYksjjP72f-61" value="" style="endArrow=none;html=1;rounded=0;exitX=0.5;exitY=1;exitDx=0;exitDy=0;" edge="1" parent="1" source="x47aLHPAcNhYksjjP72f-58" target="x47aLHPAcNhYksjjP72f-62">
          <mxGeometry relative="1" as="geometry">
            <mxPoint x="270" y="500" as="sourcePoint" />
            <mxPoint x="225" y="570" as="targetPoint" />
            <Array as="points">
              <mxPoint x="225" y="570" />
              <mxPoint x="250" y="570" />
            </Array>
          </mxGeometry>
        </mxCell>
        <mxCell id="x47aLHPAcNhYksjjP72f-62" value="ancho" style="ellipse;whiteSpace=wrap;html=1;align=center;" vertex="1" parent="1">
          <mxGeometry x="217.5" y="575" width="65" height="30" as="geometry" />
        </mxCell>
        <mxCell id="x47aLHPAcNhYksjjP72f-63" value="" style="endArrow=none;html=1;rounded=0;exitX=1;exitY=1;exitDx=0;exitDy=0;" edge="1" parent="1" source="x47aLHPAcNhYksjjP72f-58" target="x47aLHPAcNhYksjjP72f-64">
          <mxGeometry relative="1" as="geometry">
            <mxPoint x="270" y="500" as="sourcePoint" />
            <mxPoint x="430" y="500" as="targetPoint" />
            <Array as="points">
              <mxPoint x="330" y="545" />
            </Array>
          </mxGeometry>
        </mxCell>
        <mxCell id="x47aLHPAcNhYksjjP72f-64" value="profundidad" style="ellipse;whiteSpace=wrap;html=1;align=center;" vertex="1" parent="1">
          <mxGeometry x="290" y="570" width="80" height="35" as="geometry" />
        </mxCell>
        <mxCell id="x47aLHPAcNhYksjjP72f-65" value="" style="endArrow=none;html=1;rounded=0;exitX=0;exitY=0.5;exitDx=0;exitDy=0;" edge="1" parent="1" source="x47aLHPAcNhYksjjP72f-58" target="x47aLHPAcNhYksjjP72f-66">
          <mxGeometry relative="1" as="geometry">
            <mxPoint x="120" y="500" as="sourcePoint" />
            <mxPoint x="80" y="560" as="targetPoint" />
            <Array as="points">
              <mxPoint x="105" y="530" />
            </Array>
          </mxGeometry>
        </mxCell>
        <mxCell id="x47aLHPAcNhYksjjP72f-66" value="peso" style="ellipse;whiteSpace=wrap;html=1;align=center;" vertex="1" parent="1">
          <mxGeometry x="75" y="572.5" width="60" height="30" as="geometry" />
        </mxCell>
        <mxCell id="x47aLHPAcNhYksjjP72f-67" value="precio" style="ellipse;whiteSpace=wrap;html=1;align=center;" vertex="1" parent="1">
          <mxGeometry x="110" y="480" width="60" height="35" as="geometry" />
        </mxCell>
        <mxCell id="x47aLHPAcNhYksjjP72f-68" value="" style="endArrow=none;html=1;rounded=0;exitX=0.5;exitY=0;exitDx=0;exitDy=0;entryX=0;entryY=0.5;entryDx=0;entryDy=0;" edge="1" parent="1" source="x47aLHPAcNhYksjjP72f-67">
          <mxGeometry relative="1" as="geometry">
            <mxPoint x="140" y="498" as="sourcePoint" />
            <mxPoint x="200" y="470.5" as="targetPoint" />
            <Array as="points">
              <mxPoint x="140" y="470" />
            </Array>
          </mxGeometry>
        </mxCell>
        <mxCell id="x47aLHPAcNhYksjjP72f-70" value="" style="endArrow=none;html=1;rounded=0;exitX=0.5;exitY=1;exitDx=0;exitDy=0;entryX=0.5;entryY=0;entryDx=0;entryDy=0;" edge="1" parent="1" source="x47aLHPAcNhYksjjP72f-44" target="x47aLHPAcNhYksjjP72f-72">
          <mxGeometry relative="1" as="geometry">
            <mxPoint x="700" y="500" as="sourcePoint" />
            <mxPoint x="720" y="500" as="targetPoint" />
          </mxGeometry>
        </mxCell>
        <mxCell id="x47aLHPAcNhYksjjP72f-72" value="codigo" style="ellipse;whiteSpace=wrap;html=1;align=center;fontStyle=4;" vertex="1" parent="1">
          <mxGeometry x="685" y="500" width="70" height="30" as="geometry" />
        </mxCell>
        <mxCell id="x47aLHPAcNhYksjjP72f-73" value="provee" style="shape=rhombus;double=1;perimeter=rhombusPerimeter;whiteSpace=wrap;html=1;align=center;" vertex="1" parent="1">
          <mxGeometry x="429" y="432" width="120" height="60" as="geometry" />
        </mxCell>
        <mxCell id="x47aLHPAcNhYksjjP72f-74" value="" style="shape=link;html=1;rounded=0;exitX=1;exitY=0.5;exitDx=0;exitDy=0;entryX=0;entryY=0.5;entryDx=0;entryDy=0;" edge="1" parent="1" source="x47aLHPAcNhYksjjP72f-56" target="x47aLHPAcNhYksjjP72f-73">
          <mxGeometry relative="1" as="geometry">
            <mxPoint x="310" y="530" as="sourcePoint" />
            <mxPoint x="470" y="530" as="targetPoint" />
          </mxGeometry>
        </mxCell>
        <mxCell id="x47aLHPAcNhYksjjP72f-76" value="" style="endArrow=none;html=1;rounded=0;exitX=1;exitY=0.5;exitDx=0;exitDy=0;entryX=0;entryY=0.5;entryDx=0;entryDy=0;" edge="1" parent="1" source="x47aLHPAcNhYksjjP72f-73" target="x47aLHPAcNhYksjjP72f-44">
          <mxGeometry relative="1" as="geometry">
            <mxPoint x="490" y="500" as="sourcePoint" />
            <mxPoint x="650" y="500" as="targetPoint" />
          </mxGeometry>
        </mxCell>
        <mxCell id="x47aLHPAcNhYksjjP72f-77" value="" style="endArrow=none;html=1;rounded=0;exitX=0.5;exitY=1;exitDx=0;exitDy=0;" edge="1" parent="1" source="x47aLHPAcNhYksjjP72f-1" target="x47aLHPAcNhYksjjP72f-78">
          <mxGeometry relative="1" as="geometry">
            <mxPoint x="280" y="420" as="sourcePoint" />
            <mxPoint x="250" y="300" as="targetPoint" />
          </mxGeometry>
        </mxCell>
        <mxCell id="x47aLHPAcNhYksjjP72f-78" value="asociado" style="shape=rhombus;perimeter=rhombusPerimeter;whiteSpace=wrap;html=1;align=center;" vertex="1" parent="1">
          <mxGeometry x="190" y="298" width="120" height="60" as="geometry" />
        </mxCell>
        <mxCell id="x47aLHPAcNhYksjjP72f-79" value="" style="endArrow=none;html=1;rounded=0;exitX=0.5;exitY=1;exitDx=0;exitDy=0;entryX=0.5;entryY=0;entryDx=0;entryDy=0;" edge="1" parent="1" source="x47aLHPAcNhYksjjP72f-78" target="x47aLHPAcNhYksjjP72f-56">
          <mxGeometry relative="1" as="geometry">
            <mxPoint x="280" y="420" as="sourcePoint" />
            <mxPoint x="440" y="420" as="targetPoint" />
          </mxGeometry>
        </mxCell>
        <mxCell id="x47aLHPAcNhYksjjP72f-80" value="(0,n)" style="text;html=1;align=center;verticalAlign=middle;resizable=0;points=[];autosize=1;strokeColor=none;fillColor=none;" vertex="1" parent="1">
          <mxGeometry x="240" y="200" width="50" height="30" as="geometry" />
        </mxCell>
        <mxCell id="x47aLHPAcNhYksjjP72f-81" value="(1,n)" style="text;html=1;align=center;verticalAlign=middle;resizable=0;points=[];autosize=1;strokeColor=none;fillColor=none;" vertex="1" parent="1">
          <mxGeometry x="300" y="432" width="50" height="30" as="geometry" />
        </mxCell>
        <mxCell id="x47aLHPAcNhYksjjP72f-82" value="(1,1)" style="text;html=1;align=center;verticalAlign=middle;resizable=0;points=[];autosize=1;strokeColor=none;fillColor=none;" vertex="1" parent="1">
          <mxGeometry x="620" y="432" width="50" height="30" as="geometry" />
        </mxCell>
        <mxCell id="x47aLHPAcNhYksjjP72f-85" value="" style="endArrow=none;html=1;rounded=0;exitX=1;exitY=0.5;exitDx=0;exitDy=0;entryX=0.25;entryY=1;entryDx=0;entryDy=0;" edge="1" parent="1" source="x47aLHPAcNhYksjjP72f-16" target="x47aLHPAcNhYksjjP72f-1">
          <mxGeometry relative="1" as="geometry">
            <mxPoint x="230" y="220" as="sourcePoint" />
            <mxPoint x="390" y="220" as="targetPoint" />
            <Array as="points">
              <mxPoint x="225" y="230" />
            </Array>
          </mxGeometry>
        </mxCell>
        <mxCell id="x47aLHPAcNhYksjjP72f-86" value="(1,1)" style="text;html=1;align=center;verticalAlign=middle;resizable=0;points=[];autosize=1;strokeColor=none;fillColor=none;" vertex="1" parent="1">
          <mxGeometry x="250" y="411" width="50" height="30" as="geometry" />
        </mxCell>
        <mxCell id="x47aLHPAcNhYksjjP72f-87" value="(0,n)" style="text;html=1;align=center;verticalAlign=middle;resizable=0;points=[];autosize=1;strokeColor=none;fillColor=none;" vertex="1" parent="1">
          <mxGeometry x="630" y="158" width="50" height="30" as="geometry" />
        </mxCell>
        <mxCell id="x47aLHPAcNhYksjjP72f-88" value="(1,n)" style="text;html=1;align=center;verticalAlign=middle;resizable=0;points=[];autosize=1;strokeColor=none;fillColor=none;" vertex="1" parent="1">
          <mxGeometry x="345" y="158" width="50" height="30" as="geometry" />
        </mxCell>
      </root>
    </mxGraphModel>
  </diagram>
</mxfile>
